<?xml version="1.0" standalone="no"?><!DOCTYPE svg PUBLIC "-//W3C//DTD SVG 1.1//EN" "http://www.w3.org/Graphics/SVG/1.1/DTD/svg11.dtd"><svg t="1596016365431" class="icon" viewBox="0 0 1088 1024" version="1.1" xmlns="http://www.w3.org/2000/svg" p-id="20132" xmlns:xlink="http://www.w3.org/1999/xlink" width="34" height="32"><defs><style type="text/css"></style></defs><path d="M931.357135 0.00005H156.690929a83.551914 83.551914 0 0 0-77.82792 52.915946C49.550039 127.416919 0.00009 256.641787 0.00009 278.986764a111.424886 111.424886 0 0 0 219.705775 26.418973 111.201886 111.201886 0 0 0 216.220778 0 111.201886 111.201886 0 0 0 216.220778 0 111.201886 111.201886 0 0 0 216.208779 0 111.424886 111.424886 0 0 0 219.691774-26.418973c0-22.331977-49.549949-151.569845-78.862919-226.070768A83.551914 83.551914 0 0 0 931.357135 0.00005z" p-id="20133" fill="#1296db"></path><path d="M988.556076 437.445601a108.621889 108.621889 0 0 1-12.102987 0.681 110.742886 110.742886 0 0 1-86.445912-41.414958 27.754972 27.754972 0 0 0-43.301955 0 110.952886 110.952886 0 0 1-172.893823 0 27.754972 27.754972 0 0 0-43.339955 0.026 110.952886 110.952886 0 0 1-172.893823 0 27.754972 27.754972 0 0 0-43.301956 0 110.952886 110.952886 0 0 1-172.892823 0 27.754972 27.754972 0 0 0-43.301955 0 110.742886 110.742886 0 0 1-86.446911 41.402958 108.634889 108.634889 0 0 1-12.114988-0.682c-16.044984-1.793998-29.73297 11.552988-29.73297 27.702972v475.141513A83.695914 83.695914 0 0 0 153.481933 1023.999h781.123199a83.695914 83.695914 0 0 0 83.695914-83.695914V465.148573c0-16.149983-13.686986-29.50997-29.74497-27.702972zM701.84137 655.710378L563.749512 793.802236a27.898971 27.898971 0 0 1-39.44996 0L386.205694 655.710378a27.898971 27.898971 0 0 1 39.45096-39.45096l118.366878 118.405879L662.389411 616.298418a27.898971 27.898971 0 0 1 39.450959 39.45096z" p-id="20134" fill="#1296db"></path></svg>