<?xml version="1.0" standalone="no"?><!DOCTYPE svg PUBLIC "-//W3C//DTD SVG 1.1//EN" "http://www.w3.org/Graphics/SVG/1.1/DTD/svg11.dtd"><svg t="1596016411591" class="icon" viewBox="0 0 1024 1024" version="1.1" xmlns="http://www.w3.org/2000/svg" p-id="21318" xmlns:xlink="http://www.w3.org/1999/xlink" width="32" height="32"><defs><style type="text/css"></style></defs><path d="M691.2 119.854545A852.014545 852.014545 0 0 1 547.84 0a329.774545 329.774545 0 0 1-143.36 119.156364A666.763636 666.763636 0 0 1 164.072727 188.043636v494.08c0 114.734545 165.236364 157.789091 292.770909 250.647273A404.945455 404.945455 0 0 1 548.072727 1024a339.316364 339.316364 0 0 1 84.247273-84.945455c127.069091-91.927273 299.752727-139.636364 299.752727-256V188.043636A418.909091 418.909091 0 0 1 691.2 119.854545z m189.672727 540.858182c-2.094545 109.847273-149.876364 143.127273-259.723636 225.745455a649.076364 649.076364 0 0 0-73.309091 61.44 847.825455 847.825455 0 0 0-79.592727-66.094546C357.469091 798.487273 215.04 768 215.04 660.48V238.778182a1005.381818 1005.381818 0 0 0 239.476364-80.756364 269.265455 269.265455 0 0 0 93.090909-80.523636 1131.287273 1131.287273 0 0 0 106.821818 80.523636 510.138182 510.138182 0 0 0 225.978182 80.756364zM495.476364 280.436364v13.032727q0 16.989091 2.094545 43.287273v56.087272a188.741818 188.741818 0 0 0-2.094545 28.16v28.16h10.705454c11.403636 0 30.021818 0 55.621818-2.327272h32.116364v58.414545h-87.738182q-64.232727 0-64.232727-4.189091v45.381818c12.8-1.396364 34.909091-3.025455 66.327273-4.421818H558.545455a297.890909 297.890909 0 0 1-143.592728 138.472727 182.458182 182.458182 0 0 1 46.545455 34.443637 438.690909 438.690909 0 0 0 132.654545-164.305455v118.923637a396.8 396.8 0 0 1-4.189091 73.541818h49.338182a60.974545 60.974545 0 0 0-2.094545-13.032727 447.534545 447.534545 0 0 1-2.327273-60.509091v-121.018182a267.403636 267.403636 0 0 0 128.698182 170.821818 116.363636 116.363636 0 0 1 40.727273-38.865455 267.403636 267.403636 0 0 1-141.498182-138.472727h53.527272c14.429091 1.396364 27.927273 2.792727 40.727273 4.421818q38.632727 6.283636 30.021818 4.189091v-46.545454c-17.221818 1.396364-40.727273 2.094545-69.818181 2.094545h-81.454546V446.836364h43.054546a542.487273 542.487273 0 0 0 68.421818 2.327272c0-1.629091 0-7.912727-2.094546-19.549091q-2.094545-25.832727-2.094545-43.287272v-43.287273a468.945455 468.945455 0 0 1 4.189091-62.603636 405.876364 405.876364 0 0 1-64.232728 4.421818h-131.956363a342.574545 342.574545 0 0 1-55.621818-4.421818zM698.181818 321.396364v86.574545h-157.789091v-86.341818zM409.832727 667.461818V390.749091c28.392727-56.32 44.218182-85.876364 46.545455-88.669091a23.272727 23.272727 0 0 1 10.705454-8.610909 24.901818 24.901818 0 0 0 8.610909-8.610909A150.341818 150.341818 0 0 0 420.538182 256q-60.043636 177.338182-128.698182 239.941818a216.436364 216.436364 0 0 1 27.927273 45.381818c4.189091-7.214545 12.101818-19.316364 23.272727-36.770909s20.712727-33.047273 27.927273-43.287272v205.498181a414.487273 414.487273 0 0 1-4.189091 75.636364h46.545454l-2.094545-2.094545a305.338182 305.338182 0 0 1-2.094546-73.541819z m0 0" p-id="21319" fill="#1296db"></path></svg>