<?xml version="1.0" standalone="no"?><!DOCTYPE svg PUBLIC "-//W3C//DTD SVG 1.1//EN" "http://www.w3.org/Graphics/SVG/1.1/DTD/svg11.dtd"><svg t="1596016582379" class="icon" viewBox="0 0 1024 1024" version="1.1" xmlns="http://www.w3.org/2000/svg" p-id="24738" xmlns:xlink="http://www.w3.org/1999/xlink" width="32" height="32"><defs><style type="text/css"></style></defs><path d="M915.802103 185.535708H640.678084l60.598357-131.857534a37.406393 37.406393 0 0 0-18.703197-50.311599 37.406393 37.406393 0 0 0-14.962557-3.179543 38.715616 38.715616 0 0 0-35.349041 22.069772l-74.812785 163.465936h-123.254064l-74.812786-163.465936a39.463744 39.463744 0 0 0-50.872694-18.703197A37.406393 37.406393 0 0 0 287.561737 24.688219a36.284201 36.284201 0 0 0 1.122192 28.989955l60.598356 131.857534H108.198084A83.042192 83.042192 0 0 0 25.716988 268.764932v672.192876a83.416256 83.416256 0 0 0 82.481096 83.042192h807.604019A83.042192 83.042192 0 0 0 998.283199 940.957808V268.764932a83.416256 83.416256 0 0 0-82.481096-83.229224zM923.470413 948.252055H101.838998V262.218813h820.322191z" fill="#1296db" p-id="24739"></path><path d="M433.633701 833.788493a52.36895 52.36895 0 0 1-23.566028-5.423927 54.613333 54.613333 0 0 1-31.047306-48.441278V459.537534a54.987397 54.987397 0 0 1 31.047306-49.376438 54.239269 54.239269 0 0 1 57.418813 6.359087l200.498265 159.725296a54.239269 54.239269 0 0 1 0 84.72548l-200.498265 159.912329a52.181918 52.181918 0 0 1-33.852785 12.905205z m5.423927-363.029041v297.006758l187.031963-148.503379z" fill="#1296db" p-id="24740"></path></svg>