<?xml version="1.0" standalone="no"?><!DOCTYPE svg PUBLIC "-//W3C//DTD SVG 1.1//EN" "http://www.w3.org/Graphics/SVG/1.1/DTD/svg11.dtd"><svg t="1597132222368" class="icon" viewBox="0 0 1024 1024" version="1.1" xmlns="http://www.w3.org/2000/svg" p-id="1871" xmlns:xlink="http://www.w3.org/1999/xlink" width="16" height="16"><defs><style type="text/css"></style></defs><path d="M512.001535 959.719998l-9.508561-3.679809c-305.311591-118.010741-340.617701-272.260847-340.617701-378.013403L161.875273 174.104293l27.254737 0.930185c212.224496 7.227612 302.595736-88.554872 303.444057-89.48608l19.453051-21.268396 19.426445 21.268396c0.713244 0.768503 86.358857 89.870844 280.771685 89.870844l0.031722 0c7.390317 0 14.944364-0.107447 22.611997-0.384763l27.254737-0.930185 0 403.922493c0 105.753579-35.307134 260.002662-340.617701 378.013403L512.001535 959.719998 512.001535 959.719998zM214.573495 228.121558l0 349.905228c0 56.875359 0.028653 207.02917 297.42804 325.147358 297.425993-118.118188 297.425993-268.272 297.425993-325.147358L809.427528 228.121558c-164.6909-0.633427-259.455193-59.240219-297.425993-89.517803C474.001059 168.850639 379.235742 227.432873 214.573495 228.121558L214.573495 228.121558zM275.955494 534.201651l54.153364-43.88244 108.368126 79.957053c0 0 149.629879-154.797575 294.098201-227.033783l20.635993 23.245424c0 0-180.570565 149.636019-273.441742 348.312964L275.955494 534.201651 275.955494 534.201651zM275.955494 534.201651" p-id="1872" fill="#ffffff"></path></svg>