<?xml version="1.0" standalone="no"?><!DOCTYPE svg PUBLIC "-//W3C//DTD SVG 1.1//EN" "http://www.w3.org/Graphics/SVG/1.1/DTD/svg11.dtd"><svg t="1596016316080" class="icon" viewBox="0 0 1024 1024" version="1.1" xmlns="http://www.w3.org/2000/svg" p-id="19825" xmlns:xlink="http://www.w3.org/1999/xlink" width="32" height="32"><defs><style type="text/css"></style></defs><path d="M231.2192 606.5152c9.2672 7.6288 20.855467 11.741867 32.699733 11.741867 2.030933 0 4.061867-0.119467 6.0928-0.3584 13.943467-1.672533 26.589867-8.977067 35.089067-20.206933l106.325333-140.919467 105.864533 89.514667c10.734933 9.0624 24.661333 13.568 38.638933 11.895467 13.960533-1.467733 26.7264-8.5504 35.362133-19.677867l243.1488-312.951467c1.774933-2.286933 3.1744-4.744533 4.522667-7.202133l42.683733-50.4832c22.869333-27.050667 13.038933-44.612267-21.845333-39.0144L658.6368 161.109333c-34.901333 5.597867-42.154667 29.815467-16.128 53.845333l40.226133 37.12-139.9296 180.104533-106.427733-90.0096c-10.837333-9.1136-24.849067-13.4144-39.0144-11.861333-14.062933 1.570133-26.88 8.891733-35.4304 20.241067l-106.786133 141.533867-51.285333-42.1376c-22.084267-18.158933-54.647467-14.916267-72.704 7.304533-18.056533 22.186667-14.813867 54.8864 7.287467 73.0112L231.2192 606.5152zM836.778667 370.3296 599.6544 658.705067c-10.6496 13.482667-37.7344-5.870933-50.807467-16.964267l-95.300267-83.729067c-13.073067-11.093333-32.6656 7.68-43.537067 20.992l-110.7456 135.68c-10.8544 13.312-30.378667-1.9456-43.349333-13.1584l-96.631467-76.7488c-17.339733-16.657067-33.877333 0.7168-33.877333 33.928533L126.0032 864.256c0.034133 17.237333 14.062933 31.3344 31.146667 31.351467l715.5712 0.5632c17.1008 0.017067 31.0784-14.08 31.0784-31.317333 0 0 0.7168-443.886933 0.7168-477.576533C904.533333 342.101333 868.8128 333.431467 836.778667 370.3296z" p-id="19826" fill="#e48220"></path></svg>