<?xml version="1.0" standalone="no"?><!DOCTYPE svg PUBLIC "-//W3C//DTD SVG 1.1//EN" "http://www.w3.org/Graphics/SVG/1.1/DTD/svg11.dtd"><svg t="1596016721350" class="icon" viewBox="0 0 1024 1024" version="1.1" xmlns="http://www.w3.org/2000/svg" p-id="27579" xmlns:xlink="http://www.w3.org/1999/xlink" width="32" height="32"><defs><style type="text/css"></style></defs><path d="M502.3 135.8c-23.2-14.1-99.3-53.9-144.6-79.1-39.6-21.9-51.7 25.2-55.4 57.5-3.8 32.5-3.8 74.3 37.8 74.3h152.2c41.5 0.3 41.5-33.3 10-52.7zM64.5 288.6v95c0 35.3 11.8 52.9 58.7 52.9h374.5V240.7H122.2c-47.4 0-57.7 15.9-57.7 47.9z m39.8 581.2c0.5 73.3 43.1 115.2 134.6 115.2h256.8V497.6H104.3s-0.7 299.1 0 372.2zM999 292.7c0-32-13.9-51.9-61.5-51.9H567.3v195.8h372.9c46.9 0 58.7-16.1 58.7-51.4-0.2-32.1 0.1-60.5 0.1-92.5z m-228.4-179c-3.8-32.3-15.9-79.6-55.4-57.5-45.4 25.2-121.5 65-144.6 79.1-31.5 19.2-31.5 52.7 10.1 52.7h152.2c41.5 0 41.5-41.8 37.7-74.3zM567.3 497.6V985h250.2c91.2 0 132.3-45.9 132.8-119.2 0.5-73.3-0.3-368.4-0.3-368.4l-382.7 0.2z m0 0" p-id="27580" data-spm-anchor-id="a313x.7781069.0.i33" class="selected" fill="#fa6805"></path></svg>