<?xml version="1.0" standalone="no"?><!DOCTYPE svg PUBLIC "-//W3C//DTD SVG 1.1//EN" "http://www.w3.org/Graphics/SVG/1.1/DTD/svg11.dtd"><svg t="1596016221644" class="icon" viewBox="0 0 1145 1024" version="1.1" xmlns="http://www.w3.org/2000/svg" p-id="17341" xmlns:xlink="http://www.w3.org/1999/xlink" width="35.78125" height="32"><defs><style type="text/css"></style></defs><path d="M1087.758 321.333L671.315 32.583c-74.803-59.289-152.558-24.831-184.95 2.885L43.638 338.827C24.27 351.695-6.98 378.08 1.417 410.148c5.768 22.033 26.197 34.423 60.774 36.847 0.717 0.068 1.416 0.085 2.133 0.085l103.27 0.137v458.955c0 64.99 50.227 117.828 111.974 117.828h305.68c9.029 0 16.964-3.994 22.648-10.12 6.263-5.735 10.342-13.79 10.342-22.955V718.183H768.51c17.169 0 31.112-14.011 31.112-31.266s-13.943-31.283-31.112-31.283H618.238v-69H768.51c17.169 0 31.112-14.012 31.112-31.266 0-17.289-13.943-31.3-31.112-31.3H661.246l111.24-119.125c11.742-12.612 11.093-32.376-1.434-44.22-12.51-11.776-32.238-11.161-43.963 1.434l-140.56 150.596L450.404 361.15c-11.503-12.8-31.164-13.807-43.947-2.27-12.765 11.571-13.772 31.351-2.27 44.168l108.664 121.02H405.776c-17.17 0-31.13 14.011-31.13 31.3 0 17.254 13.944 31.266 31.13 31.266H556.03v69H405.776c-17.17 0-31.13 14.029-31.13 31.283s13.944 31.266 31.13 31.266H556.03v243.285H279.551c-27.443 0-49.75-24.815-49.75-55.296V420.917c0-1.4-0.63-2.577-0.801-3.925 0.034-0.324 0.205-0.598 0.205-0.939 0.034-17.271-13.876-31.283-31.079-31.334l-110.813-0.154 435.59-298.46c0.974-0.666 2.066-1.537 2.953-2.305 5.428-4.642 54.323-44.356 107.503-1.638 0.597 0.444 1.178 0.87 1.775 1.314l416.545 288.852c7.014 5.138 14.523 11.862 20.394 17.972-3.942 0.187-8.687 0.324-14.438 0.17l-99.038 0.427c-0.29 0-0.512 0.154-0.802 0.154-0.307 0-0.529-0.154-0.853-0.154-17.186 0-31.112 13.995-31.112 31.283l0.17 483.975c0 30.481-22.34 55.296-49.766 55.296H718.112c-17.17 0-31.096 13.977-31.096 31.266 0 17.254 13.927 31.266 31.096 31.266h158.122c61.747 0 111.991-52.855 111.991-117.828l-0.102-452.863 69-0.29c19.592 0.342 71.833 1.553 84.923-37.256 12.8-37.99-28.091-75.161-54.288-94.413" fill="#1296db" p-id="17342"></path></svg>