<?xml version="1.0" standalone="no"?><!DOCTYPE svg PUBLIC "-//W3C//DTD SVG 1.1//EN" "http://www.w3.org/Graphics/SVG/1.1/DTD/svg11.dtd"><svg t="1596016069184" class="icon" viewBox="0 0 1024 1024" version="1.1" xmlns="http://www.w3.org/2000/svg" p-id="14447" xmlns:xlink="http://www.w3.org/1999/xlink" width="32" height="32"><defs><style type="text/css"></style></defs><path d="M128 0h768c85.33504 0 128 42.66496 128 128v768c0 85.33504-42.66496 128-128 128H128c-85.33504 0-128-42.66496-128-128V128C0 42.66496 42.66496 0 128 0z m407.96672 646.30272H608a23.99744 23.99744 0 1 1 0 48h-72.00256V763.904a23.99744 23.99744 0 1 1-47.99488 0v-69.60128H416a23.99744 23.99744 0 0 1 0-47.96416h72.00256v-38.4H416a23.99744 23.99744 0 1 1 0-48.00512h47.96928l-43.20256-57.6a23.99744 23.99744 0 1 1 38.4-28.79488l52.80256 70.4 52.79744-70.4a23.99744 23.99744 0 1 1 38.4 28.79488l-43.19744 57.56928h48a23.99744 23.99744 0 1 1 0 48H535.9616v38.4zM410.2144 320h0.03072a697.78944 697.78944 0 0 1-95.20128 99.80928c-49.92 42.46016-97.37216 89.37472-112.64 189.66016-15.19616 100.352 42.72128 197.632 125.28128 241.60256 82.52928 43.904 210.33472 66.65728 339.42528 15.58528 120.03328-45.34784 156.86144-151.77728 156.8-231.936 0-108.44672-55.61856-166.43072-128.86528-225.31072C654.23872 373.76 625.43872 343.936 608.79872 320H410.2144zM421.12 128h-0.06656 0.06656a48 48 0 0 0-41.28256 72.64256l42.72128 71.35744h178.816l42.69056-71.36256A48 48 0 0 0 602.88 128h-181.76z" fill="#1296db" p-id="14448"></path></svg>