<?xml version="1.0" standalone="no"?><!DOCTYPE svg PUBLIC "-//W3C//DTD SVG 1.1//EN" "http://www.w3.org/Graphics/SVG/1.1/DTD/svg11.dtd"><svg t="1596016833366" class="icon" viewBox="0 0 1024 1024" version="1.1" xmlns="http://www.w3.org/2000/svg" p-id="31122" xmlns:xlink="http://www.w3.org/1999/xlink" width="32" height="32"><defs><style type="text/css"></style></defs><path d="M511.872 85.439c12.52 0 24.528 3.832 34.749 10.986a61.836 61.836 0 0 1 22.1 28.617l10.22 27.466 27.85 9.198c30.15 9.965 58.51 24.4 84.316 43.18a302.812 302.812 0 0 1 66.559 66.175c38.836 52.506 59.276 114.976 59.276 180.64v262.785l10.22 15.33 58.894 88.148H640.518l-14.436 40.497c-8.432 23.634-23.506 43.947-43.819 58.638-20.696 15.075-45.096 22.868-70.646 22.868s-49.951-7.793-70.519-22.74c-20.312-14.692-35.387-35.004-43.819-58.638l-14.435-40.625H137.56l58.894-88.148 10.22-15.33V451.7c0-65.664 20.44-128.134 59.276-180.64 18.78-25.422 41.136-47.651 66.559-66.175 25.805-18.78 54.166-33.215 84.315-43.18l27.85-9.198 10.22-27.466c4.344-11.626 12.009-21.59 22.101-28.617 10.348-7.154 22.357-10.986 34.876-10.986m0-61.065c-52.378 0-96.58 33.087-114.082 79.333-146.402 48.035-252.18 185.623-252.18 347.994v244.133l-58.894 88.148c-27.083 40.497 2.044 94.92 50.845 94.92h202.486c25.167 71.03 92.364 122.13 171.953 122.13s146.786-51.1 171.953-122.13H886.44c48.673 0 77.8-54.295 50.845-94.92l-58.894-88.148V451.701c0-162.371-105.905-299.96-252.308-347.994-17.63-46.246-61.832-79.333-114.21-79.333z m0 0" p-id="31123" fill="#ffffff"></path><path d="M328.677 817.964H694.94v61.065H328.677z" p-id="31124" fill="#ffffff"></path></svg>