<?xml version="1.0" standalone="no"?><!DOCTYPE svg PUBLIC "-//W3C//DTD SVG 1.1//EN" "http://www.w3.org/Graphics/SVG/1.1/DTD/svg11.dtd"><svg t="1596635506678" class="icon" viewBox="0 0 1058 1024" version="1.1" xmlns="http://www.w3.org/2000/svg" p-id="16264" xmlns:xlink="http://www.w3.org/1999/xlink" width="16.53125" height="16"><defs><style type="text/css"></style></defs><path d="M515.868396 0C234.208396 0 4.464646 207.66375 4.464646 463.0675c0 115.17 46.545 224.97125 131.87875 310.30375v221.3875c0 11.33875 6.56375 21.48375 16.70875 26.2575 4.17625 1.79 8.35375 2.98375 12.53125 2.98375 6.56375 0 13.1275-2.38625 17.90125-6.56375l165.89375-134.26625c12.53125-10.14375 14.32125-28.04625 4.17625-40.5775-10.14375-12.5325-28.04625-14.3225-40.5775-4.1775l-119.3475 96.07375V761.43625c0-7.7575-2.98375-15.515-8.95125-20.88625-78.76875-75.785-122.33125-174.2475-122.33125-277.4825 0-223.17875 203.4875-405.18375 453.52-405.18375 250.0325 0 453.51875 182.005 453.51875 405.18375 0 223.18-203.48625 405.18375-453.51875 405.18375h-3.58c-16.1125 0-28.64375 12.53125-28.64375 28.64375s12.53125 29.24 28.64375 29.24h4.1775c282.255 0 511.40375-207.66375 511.40375-463.0675S798.124646 0 515.868396 0zM235.400896 415.925c-12.53125 12.53125-19.6925 29.8375-19.6925 47.73875 0 17.30625 7.16125 35.2075 19.6925 47.74 12.5325 12.53125 29.8375 19.69125 47.73875 19.69125 17.30625 0 35.2075-7.16 47.74-19.69125 12.53125-12.5325 19.69125-29.8375 19.69125-47.74 0-17.305-7.16-35.2075-19.69125-47.73875-12.5325-12.53125-29.8375-19.6925-47.74-19.6925-17.90125 0-35.20625 7.16125-47.73875 19.6925z m328.205 95.47875c12.53375-12.5325 19.6925-29.8375 19.6925-47.74 0-17.305-7.15875-35.20625-19.6925-47.73875-12.52875-12.53125-29.83625-19.6925-47.7375-19.6925-17.305 0-35.20875 7.16125-47.73875 19.6925-12.53125 12.5325-19.6925 29.8375-19.6925 47.73875 0 17.30625 7.16125 35.2075 19.6925 47.74 12.53125 12.53125 29.8375 19.69125 47.73875 19.69125 17.9 0 35.2075-7.7575 47.7375-19.69125z m233.325 0c12.53125-12.5325 19.6925-29.8375 19.6925-47.74 0-17.305-7.16125-35.20625-19.6925-47.73875-12.52875-12.53125-29.83625-19.6925-47.73625-19.6925-17.3075 0-35.2075 7.16125-47.74125 19.6925-12.53125 12.5325-19.69 29.8375-19.69 47.73875 0 17.30625 7.15875 35.2075 19.69 47.74 12.53125 12.53125 29.83875 19.69125 47.74125 19.69125 17.9 0 35.20375-7.7575 47.73625-19.69125z" fill="#ffffff" p-id="16265"></path></svg>