<?xml version="1.0" standalone="no"?><!DOCTYPE svg PUBLIC "-//W3C//DTD SVG 1.1//EN" "http://www.w3.org/Graphics/SVG/1.1/DTD/svg11.dtd"><svg t="1596016642617" class="icon" viewBox="0 0 1024 1024" version="1.1" xmlns="http://www.w3.org/2000/svg" p-id="26374" xmlns:xlink="http://www.w3.org/1999/xlink" width="32" height="32"><defs><style type="text/css"></style></defs><path d="M872.08789063 198.14257812c24.78515625 0 45 20.21484375 44.99999999 45.00000001v537.890625c0 24.78515625-20.21484375 45-45 45H152.08789062c-24.78515625 0-45-20.21484375-44.99999999-45v-537.890625c0-24.78515625 20.21484375-45 45-45h720m0-45H152.08789062C102.4296875 153.14257812 62.08789062 193.484375 62.08789062 243.14257812v537.890625c0 49.74609375 40.25390625 90 90.00000001 90H872.08789063c49.74609375 0 90-40.25390625 89.99999999-90v-537.890625c0-49.65820313-40.25390625-90-90-90z" fill="#dc9e1b" p-id="26375"></path><path d="M875.69140625 288.14257812h-77.6953125l-67.5 180.00000001H808.19140625l67.5-180.00000001zM217.7421875 423.14257812H172.7421875v45.00000001h45v-45zM307.7421875 423.14257812h-45v45.00000001h45v-45zM920.07617188 660.09570313H102.95703125v44.99999999h817.11914063v-45zM397.7421875 423.14257812h-45v45.00000001H397.7421875v-45zM647.96679688 288.14257812h-45.00000001l-67.49999999 180.00000001h45l67.5-180.00000001zM736.38476563 288.14257812h-45.00000001l-67.49999999 180.00000001h45l67.5-180.00000001z" fill="#dc9e1b" p-id="26376"></path></svg>