<?xml version="1.0" standalone="no"?><!DOCTYPE svg PUBLIC "-//W3C//DTD SVG 1.1//EN" "http://www.w3.org/Graphics/SVG/1.1/DTD/svg11.dtd"><svg t="1596016176539" class="icon" viewBox="0 0 1024 1024" version="1.1" xmlns="http://www.w3.org/2000/svg" p-id="16575" xmlns:xlink="http://www.w3.org/1999/xlink" width="32" height="32"><defs><style type="text/css"></style></defs><path d="M46.346 349.565c-8.389-44.533-9.799-116.435 109.871-81.725 129.902 48.454 544.269 70.962 725.811-7.676 113.138-40.291 131.71 23.116 119.537 72.705-10.387 27.351-130.030 360.393-268.686 409.733-28.141 10.018-389.697 15.222-431.347-1.735-122.122-49.723-246.796-346.77-255.184-391.303zM696.791 359.411c-1.463 25.293-84.202 40.923-174.165 28.636-94.777-12.948-154.211-32.166-154.196-36.416 0.383-94.994 73.809-153.851 164.606-153.483 90.797 0.368 169.238 66.418 163.756 161.263zM216.479 291.933c-68.438-20.863-113.822-32.465-143.802-20.705 0 0 16.073-4.422 45.383 2.096 23.334 5.189 55.921 25.436 89.049 36.987 120.297 41.959 133.454 44.543 146.31 47.945 276.559 73.185 309.166 67.343 445.647 19.045 38.51-16.463 96.489-44.287 138.425-71.616 21.118-13.759 38.166-27.39 46.623-39.383 0 0-14.471-10.836-40.058-11.371-5.769-0.121-12.091 0.286-18.948 1.457-31.151 5.317-37.573 9.388-63.483 19.354-39.42 15.17-117.299 29.499-169.676 35.238 38.526 133.979-270.594 74.86-323.314 32.706-0.841-1.569 3.726-29.123 3.726-29.123-40.39-3.508-123.975-12.902-155.879-22.628zM499.75 226.197c53.358 0.219 96.505 32.706 96.346 72.562-0.165 39.849-1.119 84.893-96.933 71.781-95.806-13.111-108.407-23.363-96.346-72.562 12.062-49.199 43.566-71.999 96.933-71.781zM446.647 246.294c16.147 6.377 22.906 27.569 15.104 47.337-7.811 19.766-27.223 30.625-43.371 24.258-16.14-6.377-22.905-27.578-15.094-47.344 7.803-19.766 27.222-30.625 43.363-24.25z" fill="#F8C651" p-id="16576"></path></svg>