<?xml version="1.0" standalone="no"?><!DOCTYPE svg PUBLIC "-//W3C//DTD SVG 1.1//EN" "http://www.w3.org/Graphics/SVG/1.1/DTD/svg11.dtd"><svg t="1596016030413" class="icon" viewBox="0 0 1024 1024" version="1.1" xmlns="http://www.w3.org/2000/svg" p-id="13677" xmlns:xlink="http://www.w3.org/1999/xlink" width="32" height="32"><defs><style type="text/css"></style></defs><path d="M512 991.232c-300.544 0-426.496-107.52-426.496-328.704 0-183.296 142.848-374.272 316.416-434.176h220.672c173.568 60.416 316.416 251.392 316.416 434.176-0.512 221.184-126.464 328.704-427.008 328.704z m118.272-363.52c19.968 0 35.84-16.384 35.84-36.352 0-19.968-16.384-36.352-35.84-36.352h-73.216v-2.56l86.016-87.552c13.824-15.872 6.656-28.672-7.168-43.008-14.336-14.336-37.376-17.408-49.152-4.608l-73.728 78.848-79.872-79.872c-10.24-10.24-29.696-6.656-44.032 7.168-14.336 14.336-17.408 33.792-7.168 44.032l81.408 81.408c-1.536 2.048-2.56 4.096-3.072 6.656H394.24c-19.968 0-36.352 16.384-36.352 36.352 0 19.968 16.384 36.352 36.352 36.352h72.704v36.352H394.24c-19.968 0-36.352 16.384-36.352 36.352 0 19.968 16.384 36.352 36.352 36.352h72.704v36.352h0.512c-0.512 3.072-1.024 5.632-1.024 8.704 0 25.088 20.48 45.568 45.568 45.568s45.568-20.48 45.568-45.568c0-3.072-0.512-6.144-1.024-8.704h0.512V737.28h73.216c19.968 0 35.84-16.384 35.84-36.352 0-19.968-16.384-36.352-35.84-36.352h-73.216v-36.352l73.216-0.512z m54.272-544.768l-7.68 9.728-0.512 0.512L611.84 174.08H393.728L329.728 93.184c-0.512-0.512-1.024-1.024-1.024-1.536l-7.168-8.704 1.024-2.56c-0.512-2.048-1.536-4.608-1.536-6.656 0-11.776 7.168-21.504 17.408-25.088l1.024-1.536s89.088-17.92 163.328-17.92c77.824-0.512 163.328 17.92 163.328 17.92l1.024 1.536c10.24 4.096 17.408 13.824 17.408 25.088 0 2.56-1.024 4.608-1.536 6.656l1.536 2.56z" fill="#EF9049" p-id="13678"></path></svg>