<?xml version="1.0" standalone="no"?><!DOCTYPE svg PUBLIC "-//W3C//DTD SVG 1.1//EN" "http://www.w3.org/Graphics/SVG/1.1/DTD/svg11.dtd"><svg t="1596016618633" class="icon" viewBox="0 0 1024 1024" version="1.1" xmlns="http://www.w3.org/2000/svg" p-id="25563" xmlns:xlink="http://www.w3.org/1999/xlink" width="32" height="32"><defs><style type="text/css"></style></defs><path d="M943.104 16.282H319.59c-41.779 0-75.776 33.996-75.776 75.776v77.619H79.77c-41.78 0.102-75.776 34.099-75.776 75.878v613.99c0 81.511 66.355 147.764 147.763 147.764H852.48c91.648 0 166.298-74.65 166.298-166.4V92.262c0.204-41.984-33.792-75.98-75.674-75.98zM243.917 859.443c0 50.79-41.37 92.058-92.058 92.058s-92.057-41.37-92.057-92.058V245.658c0-10.957 9.01-20.07 20.172-20.07h164.148l-0.205 633.855z m519.065-240.64c16.282 0 29.39 13.21 29.39 29.389 0 16.282-13.21 29.491-29.39 29.491H660.787v40.755h102.195c16.282 0 29.39 13.21 29.39 29.39 0 16.28-13.21 29.388-29.39 29.388H660.787v85.094c0 16.282-13.21 29.492-29.389 29.492-16.281 0-29.388-13.21-29.388-29.492v-85.094H499.405c-16.282 0-29.491-13.21-29.491-29.389 0-16.281 13.21-29.389 29.49-29.389H602.01v-40.755H499.405c-16.282 0-29.491-13.21-29.491-29.491s13.21-29.389 29.49-29.389h66.868l-88.78-97.894c-10.855-11.981-10.036-30.618 1.945-41.677 5.837-5.222 13.414-7.987 21.197-7.68 7.782 0.41 15.052 3.789 20.377 9.626l110.797 122.265L741.376 482.51c5.222-5.837 12.493-9.216 20.378-9.626 7.782-0.41 15.36 2.253 21.196 7.68 5.837 5.223 9.216 12.493 9.626 20.378 0.41 7.782-2.253 15.36-7.68 21.197l-87.45 96.563h65.536z m108.237-253.03H391.578c-13.824 0-24.986-11.06-24.986-24.883s11.162-24.986 24.986-24.986h479.641c13.824 0 24.986 11.06 24.986 24.986-0.103 13.721-11.367 24.883-24.986 24.883z m0-140.903H391.578c-13.824 0-24.986-11.059-24.986-24.883s11.162-24.883 24.986-24.883h479.641c13.824 0 24.986 11.06 24.986 24.883-0.103 13.722-11.367 24.883-24.986 24.883z m0 0" p-id="25564" fill="#1296db"></path></svg>