<?xml version="1.0" standalone="no"?><!DOCTYPE svg PUBLIC "-//W3C//DTD SVG 1.1//EN" "http://www.w3.org/Graphics/SVG/1.1/DTD/svg11.dtd"><svg t="1597132277392" class="icon" viewBox="0 0 1024 1024" version="1.1" xmlns="http://www.w3.org/2000/svg" p-id="2152" xmlns:xlink="http://www.w3.org/1999/xlink" width="16" height="16"><defs><style type="text/css"></style></defs><path d="M376.010358 1010.862626c-5.373662 0-19.565577 0-26.631128-14.129884-6.191023-12.472052-1.420651-30.736177 11.322638-43.450275l17.089168-11.474677C190.859861 885.018233 61.721698 711.341197 61.721698 513.629857c0-195.929444 127.356267-367.790528 316.915892-427.636675 18.810248-6.28103 38.346634 2.113948 44.176413 19.717616 6.552267 19.68356-1.724729 38.313794-19.66045 44.323586C238.024749 198.585868 131.469831 341.283465 131.469831 513.629857c0 166.762309 107.277407 313.442108 263.079538 363.201387l-10.358104-18.172901c-6.400228-12.866137-1.629857-31.163102 11.141408-43.84436l1.995966-1.448626c12.285957-6.101016 31.06823-0.997375 43.416218 11.322638l55.437019 85.326644c4.652389 9.24153 5.136481 18.30183 1.75392 25.7566-2.357211 5.102424-7.701681 11.834705-19.836815 15.189291L395.03346 1004.672819C389.146516 1010.862626 381.568899 1010.862626 376.010358 1010.862626L376.010358 1010.862626zM639.179902 946.579377l-6.006143 0c-13.498619 0-25.604561-12.043911-31.581513-24.031871l-0.817361-3.411752c0-21.318281 9.179499-36.598796 25.029246-41.88245C791.361076 828.520591 902.411479 680.449332 902.411479 508.678255c0-166.131043-109.301348-312.900849-268.029923-363.206253l10.386079 18.206958c6.400228 12.77613 1.662697 31.039038-11.079376 43.815168-7.217589 7.212724-14.767231 7.212724-20.292931 7.212724-5.373662 0-19.532737 0-26.659103-14.097044L532.809864 117.24021c-6.642274-13.103318-1.904743-31.367442 10.871387-44.171547l85.326644-55.438235c4.409127-2.261122 8.486201-3.16849 12.985335-3.16849 10.595284 0 22.582029 5.373662 31.220269 14.067852l1.448626 2.023941c6.128991 12.439212 1.387811 30.67901-11.327504 43.450275l-16.995512 11.412645c186.836304 55.589058 315.946492 229.294069 315.946492 428.213206 0 199.855696-132.430717 377.788604-322.075483 432.678283L639.179902 946.579377 639.179902 946.579377zM519.401252 763.634052c-19.052294 0-32.364817-13.312523-32.364817-32.364817l0-91.247645-71.472862 0c-19.052294 0-32.398874-13.34658-32.398874-32.398874 0-19.081486 13.318605-32.364817 32.398874-32.364817l71.472862 0L487.036435 526.249082l-71.472862 0c-19.052294 0-32.398874-13.313739-32.398874-32.428065 0-19.052294 13.318605-32.397658 32.398874-32.397658l45.835461 0-80.856701-80.861566c-6.223863-6.218998-9.66359-14.277058-9.692782-22.672036 0-8.458226 3.439727-16.516286 9.692782-22.768124 12.37718-12.467187 32.969324-12.467187 45.407319 0l91.03844 91.004383 91.004383-91.004383c12.41002-12.439212 32.912157-12.467187 45.469351 0 6.253054 6.251838 9.66359 14.343955 9.66359 22.768124 0 8.394978-3.439727 16.485878-9.66359 22.706092L572.572284 461.4562l55.708256 0c19.024319 0 32.341707 13.312523 32.341707 32.394009l-0.788169 3.444593c-9.359513 18.69105-22.312008 28.987122-36.531898 28.987122l-71.472862 0 0 48.941919 76.451223 0c19.024319 0 32.341707 13.284548 32.341707 32.369683l-0.36611 2.413161c-6.371037 19.052294-19.807623 29.984497-36.988015 29.984497l-71.467997 0 0 91.24278C551.770934 744.433368 539.1809 763.634052 519.401252 763.634052L519.401252 763.634052zM519.401252 763.634052" p-id="2153" fill="#ffffff"></path></svg>