<?xml version="1.0" standalone="no"?><!DOCTYPE svg PUBLIC "-//W3C//DTD SVG 1.1//EN" "http://www.w3.org/Graphics/SVG/1.1/DTD/svg11.dtd"><svg t="1596016282368" class="icon" viewBox="0 0 1024 1024" version="1.1" xmlns="http://www.w3.org/2000/svg" p-id="18957" xmlns:xlink="http://www.w3.org/1999/xlink" width="32" height="32"><defs><style type="text/css"></style></defs><path d="M266.3 96.1h204L295.8 333.3H66.3l200-237.2z m466.2 279.3h225.3L570.2 835.5l162.3-460.1z m-384.4-42.1L512 110.5l163.9 222.7H348.1v0.1z m339.7 42.1L512 874 336.2 375.4h351.6z m-396.3 0l162.2 460.2L66.3 375.4h225.2z m666.2-42.1H728.2L553.6 96.1h204.1l200 237.2z m61.3 7.5L783.6 61.5c-4-4.7-9.9-7.5-16.1-7.5h-511c-6.2 0-12.1 2.7-16.1 7.5L5 340.8c-5.3 6.3-6.4 15-3 22.4 0.8 1.7 1.9 3.2 3 4.6L512 970l507-602.1c1.2-1.4 2.2-2.9 3-4.6 3.5-7.5 2.3-16.3-3-22.5z" p-id="18958" fill="#f4ea2a"></path></svg>