<?xml version="1.0" standalone="no"?><!DOCTYPE svg PUBLIC "-//W3C//DTD SVG 1.1//EN" "http://www.w3.org/Graphics/SVG/1.1/DTD/svg11.dtd"><svg t="1596806587498" class="icon" viewBox="0 0 1024 1024" version="1.1" xmlns="http://www.w3.org/2000/svg" p-id="2906" xmlns:xlink="http://www.w3.org/1999/xlink" width="16" height="16"><defs><style type="text/css"></style></defs><path d="M713.843 877.963L348.387 510.675 713.01 146.053c18.745-18.745 18.745-49.137 0-67.882-18.746-18.745-49.137-18.745-67.883 0L246.742 476.556l-0.009 0.009-0.01 0.011-0.074 0.074c-0.228 0.228-0.44 0.466-0.663 0.697-0.338 0.351-0.681 0.7-1.006 1.059-0.22 0.243-0.425 0.495-0.639 0.741-0.321 0.369-0.648 0.736-0.956 1.113-0.206 0.252-0.397 0.512-0.597 0.767-0.298 0.38-0.601 0.757-0.886 1.144-0.195 0.265-0.375 0.537-0.564 0.804-0.273 0.387-0.551 0.771-0.812 1.164-0.181 0.273-0.346 0.552-0.52 0.828-0.25 0.396-0.506 0.789-0.744 1.191-0.169 0.286-0.323 0.578-0.486 0.866-0.225 0.399-0.456 0.796-0.669 1.2-0.159 0.301-0.302 0.608-0.454 0.912-0.199 0.398-0.404 0.794-0.591 1.196-0.148 0.318-0.28 0.641-0.421 0.962-0.173 0.394-0.353 0.786-0.515 1.184-0.134 0.329-0.252 0.663-0.378 0.995-0.151 0.395-0.308 0.789-0.448 1.187-0.119 0.338-0.221 0.68-0.332 1.019-0.129 0.397-0.266 0.792-0.384 1.191-0.104 0.35-0.192 0.703-0.287 1.054-0.107 0.394-0.222 0.787-0.319 1.183-0.087 0.355-0.158 0.714-0.237 1.071-0.088 0.396-0.182 0.791-0.26 1.189-0.07 0.358-0.123 0.718-0.185 1.077-0.068 0.4-0.144 0.798-0.202 1.199-0.052 0.358-0.088 0.718-0.132 1.077-0.05 0.404-0.106 0.808-0.146 1.214-0.034 0.356-0.053 0.713-0.079 1.069-0.031 0.41-0.068 0.819-0.088 1.23-0.017 0.354-0.018 0.709-0.028 1.064-0.011 0.413-0.029 0.826-0.03 1.239 0 0.349 0.015 0.699 0.022 1.048 0.009 0.419 0.01 0.837 0.03 1.256 0.016 0.346 0.048 0.691 0.072 1.037 0.029 0.42 0.051 0.841 0.09 1.26 0.033 0.347 0.082 0.692 0.122 1.039 0.049 0.417 0.091 0.836 0.15 1.252 0.049 0.343 0.114 0.684 0.171 1.027 0.069 0.417 0.131 0.835 0.211 1.251 0.065 0.34 0.147 0.678 0.22 1.017 0.089 0.415 0.172 0.831 0.272 1.244 0.081 0.336 0.179 0.668 0.268 1.002 0.11 0.413 0.213 0.827 0.334 1.237 0.098 0.331 0.211 0.658 0.316 0.987 0.13 0.409 0.254 0.82 0.396 1.227 0.115 0.331 0.246 0.657 0.369 0.986 0.149 0.399 0.291 0.8 0.451 1.196 0.136 0.335 0.287 0.665 0.431 0.998 0.165 0.384 0.324 0.77 0.5 1.151 0.155 0.335 0.326 0.664 0.489 0.996 0.183 0.372 0.358 0.747 0.551 1.115 0.174 0.333 0.365 0.659 0.548 0.988 0.2 0.361 0.393 0.724 0.603 1.081 0.196 0.333 0.409 0.659 0.615 0.989 0.214 0.344 0.421 0.692 0.645 1.032 0.218 0.332 0.454 0.655 0.681 0.982 0.229 0.33 0.451 0.663 0.689 0.989 0.237 0.323 0.49 0.637 0.736 0.955 0.248 0.321 0.488 0.646 0.745 0.962 0.254 0.312 0.525 0.615 0.788 0.923 0.267 0.312 0.526 0.628 0.802 0.934 0.267 0.297 0.551 0.583 0.827 0.874 0.277 0.292 0.544 0.59 0.829 0.877l399.229 401.229c9.38 9.427 21.701 14.144 34.026 14.144 12.243 0 24.49-4.656 33.855-13.975 18.792-18.699 18.868-49.091 0.169-67.883z" p-id="2907" fill="#08a6f9"></path></svg>